<?xml version="1.0" encoding="UTF-8"?>
<svg id="Layer_1" data-name="Layer 1" xmlns="http://www.w3.org/2000/svg" viewBox="0 0 209.76 209.76">
  <defs>
    <style>
      .cls-1 {
        fill: #fff;
      }

      .cls-2 {
        fill: #0d4b76;
      }

      .cls-3 {
        fill: #aecc53;
      }
    </style>
  </defs>
  <path class="cls-2" d="M180.4,104.88c0-41.71-33.81-75.51-75.51-75.51S29.37,63.18,29.37,104.88s33.81,75.51,75.51,75.51c2.48,0,75.27-.36,75.27-.36,0,0,.24-73.22,.24-75.15Z"/>
  <g>
    <path class="cls-1" d="M138.79,85.71c0-19.17-15.9-34.62-35.23-33.88-17.44,.66-31.71,14.77-32.55,32.21-.44,9.23,2.8,17.69,8.39,24.05,5.94,6.76,9.42,15.34,9.42,24.34v.74c0,8.83,7.23,16.06,16.06,16.06h0c8.83,0,16.06-7.23,16.06-16.06v-.52c0-8.89,3.1-17.58,9.07-24.16,5.46-6.02,8.78-14,8.78-22.77Z"/>
    <g>
      <path class="cls-3" d="M105.48,67.24l-.6-.56-.6,.56c-.71,.66-17.34,16.26-17.34,25.95s8.05,17.94,17.94,17.94,17.94-8.05,17.94-17.94-16.63-25.29-17.34-25.95Z"/>
      <path class="cls-2" d="M104.88,146.06c-.73,0-1.32-.59-1.32-1.32v-55.95c0-.73,.59-1.32,1.32-1.32s1.32,.59,1.32,1.32v55.95c0,.73-.59,1.32-1.32,1.32Z"/>
    </g>
    <path class="cls-3" d="M118.73,138.9h-27.71c-2.44,0-4.44,2-4.44,4.44h0c0,2.14,1.54,3.94,3.57,4.35-.78,.8-1.27,1.9-1.27,3.1,0,2.44,2,4.44,4.44,4.44h2.82c1.16,3.72,4.63,6.41,8.73,6.41s7.57-2.7,8.73-6.41h2.82c2.44,0,4.44-2,4.44-4.44,0-1.2-.49-2.3-1.27-3.1,2.03-.41,3.57-2.21,3.57-4.35h0c0-2.44-2-4.44-4.44-4.44Z"/>
  </g>
</svg>